# xmcd CD database file
#
# Track frame offsets:
#	150
#	14937
#	29350
#	43325
#	57797
#	72717
#	87600
#	102347
#	115412
#	130137
#	146225
#	160962
#	175095
#	190225
#	206075
#	220950
#	231207
#	245832
#	258912
#	272947
#
# Disc length: 4031 seconds
#
# Revision: 0
# Processed by: cddbd v1.4PL0 Copyright (c) Steve Scherf et al.
# Submitted via: CDex 1.50Beta7
#
DISCID=470fbd14
DTITLE=Artie Shaw and His Orchestra - The Great Artie Shaw and His Orchestra
DYEAR=1900
DGENRE=Jazz
TTITLE0=Begin the Beguine
TTITLE1=Indian Love Call
TTITLE2=Frenesi
TTITLE3=Any Old Time
TTITLE4=Yesterdays
TTITLE5=Smoke Gets in Your Eyes
TTITLE6=Deep Purple
TTITLE7=Nightmare
TTITLE8=Deep in a Dream
TTITLE9=Stardust
TTITLE10=What is this thing Called Love
TTITLE11=Between a Kiss and a Sigh
TTITLE12=Summit Ridge Drive
TTITLE13=Jungle Drums
TTITLE14=Comes Love
TTITLE15=Traffic Jam
TTITLE16=Back Bay Shuffle
TTITLE17=My Blue Heaven
TTITLE18=Temptation
TTITLE19=Blues 1 and 2
EXTD=
EXTT0=
EXTT1=
EXTT2=
EXTT3=
EXTT4=
EXTT5=
EXTT6=
EXTT7=
EXTT8=
EXTT9=
EXTT10=
EXTT11=
EXTT12=
EXTT13=
EXTT14=
EXTT15=
EXTT16=
EXTT17=
EXTT18=
EXTT19=
PLAYORDER=
